<svg xmlns="http://www.w3.org/2000/svg" viewBox="0 0 257.71 63.86"><defs><style>.cls-1{fill:#131111;}.cls-2{fill:#b52c18;}.cls-3{fill:#666;}</style></defs><title>Logo_MELISSA_B&amp;amp;W</title><g id="Calque_2" data-name="Calque 2"><g id="Calque_1-2" data-name="Calque 1"><path class="cls-1" d="M70.77,19.5H98v9.76H80.65v7.42h13.6v9.51H80.65v7.42H98v9.76H70.77Z"/><path class="cls-1" d="M104.56,19.5h9.89V53.55h17v9.82H104.56Z"/><path class="cls-1" d="M136.56,19.5h9.89V63.37h-9.89Z"/><path class="cls-1" d="M151.63,55.28l7.48-6.12c1.92,3,5.07,5.44,8.09,5.44s4.2-1.12,4.2-3.15-1.42-3.22-5.12-4.88l-2.47-1.12c-6.62-3-10.26-7.84-10.26-13.78C153.55,24,159.91,19,166.89,19c4.88,0,8.59,1.17,12.3,5.5l-6.67,7c-2.23-2.72-3.59-3.27-5.63-3.27a3.15,3.15,0,0,0-3.39,3c0,2.29,1.91,3.53,5.93,5.32l2.34,1.05c6.06,2.72,9.58,7.1,9.58,13.16,0,7.91-5.81,13-14,13C160.34,63.86,154.66,61,151.63,55.28Z"/><path class="cls-1" d="M183.76,55.28l7.47-6.12c1.92,3,5.07,5.44,8.1,5.44s4.2-1.12,4.2-3.15-1.42-3.22-5.13-4.88l-2.47-1.12c-6.61-3-10.26-7.84-10.26-13.78C185.67,24,192,19,199,19c4.88,0,8.58,1.17,12.29,5.5l-6.67,7c-2.23-2.72-3.58-3.27-5.62-3.27a3.15,3.15,0,0,0-3.4,3c0,2.29,1.92,3.53,5.93,5.32l2.35,1.05c6,2.72,9.57,7.1,9.57,13.16,0,7.91-5.8,13-14,13C192.47,63.86,186.78,61,183.76,55.28Z"/><path class="cls-1" d="M236.08,19l21.63,44.36H247.33l-3.16-6.8H228l-3.15,6.8H214.46Zm4.14,29.53-4.14-9.14-4.14,9.14Z"/><line class="cls-2" x1="70.77" y1="9.73" x2="251.86" y2="9.73"/><polygon class="cls-3" points="240.9 15.66 246.83 9.73 240.9 3.81 245.93 3.81 251.86 9.73 245.93 15.66 240.9 15.66"/><rect class="cls-3" x="70.77" y="7.95" width="177.1" height="3.56"/><path d="M31.24,49.78,14.12,32.66V63.37H0V0L31.24,31.33"/><polyline class="cls-3" points="31.24 31.33 62.49 0 62.49 63.37 48.37 63.37 48.37 32.66 31.24 49.78"/></g></g></svg>