<svg xmlns="http://www.w3.org/2000/svg" viewBox="0 0 57.59 78.35"><defs><style>.cls-1{fill:#666;}</style></defs><title>Logo_MELISSA2_B&amp;amp;W</title><g id="Calque_2" data-name="Calque 2"><g id="Calque_1-2" data-name="Calque 1"><path d="M0,67.54l5.27,5.28,5.27-5.28V78.23H8.16V73.05L5.27,75.93,2.38,73.05v5.18H0Z"/><path d="M12.54,67.66h6.55V70H14.92v1.78h3.27v2.3H14.92v1.78h4.17v2.36H12.54Z"/><path d="M20.68,67.66h2.38v8.2h4.11v2.37H20.68Z"/><path d="M28.39,67.66h2.38V78.23H28.39Z"/><path d="M32,76.28l1.8-1.48a2.6,2.6,0,0,0,2,1.31c.7,0,1-.27,1-.76s-.35-.77-1.24-1.17L35,73.91a3.66,3.66,0,0,1-2.48-3.32,3.09,3.09,0,0,1,3.22-3,3.47,3.47,0,0,1,3,1.32l-1.6,1.7c-.54-.66-.87-.79-1.36-.79a.76.76,0,0,0-.82.73c0,.55.46.85,1.43,1.28l.57.25a3.4,3.4,0,0,1,2.3,3.17,3.1,3.1,0,0,1-3.36,3.15A4.05,4.05,0,0,1,32,76.28Z"/><path d="M39.76,76.28l1.81-1.48a2.57,2.57,0,0,0,2,1.31c.7,0,1-.27,1-.76s-.34-.77-1.24-1.17l-.59-.27a3.65,3.65,0,0,1-2.47-3.32,3.08,3.08,0,0,1,3.21-3,3.47,3.47,0,0,1,3,1.32l-1.6,1.7c-.54-.66-.87-.79-1.36-.79a.76.76,0,0,0-.82.73c0,.55.46.85,1.43,1.28l.57.25a3.41,3.41,0,0,1,2.31,3.17,3.1,3.1,0,0,1-3.37,3.15A4.05,4.05,0,0,1,39.76,76.28Z"/><path d="M52.37,67.54l5.22,10.69H55.08l-.76-1.64h-3.9l-.76,1.64h-2.5Zm1,7.11-1-2.2-1,2.2Z"/><polygon class="cls-1" points="41.35 14.03 48.37 7.01 41.35 0 47.31 0 54.32 7.01 47.31 14.03 41.35 14.03"/><polygon class="cls-1" points="49.41 4.96 1.21 4.96 5.35 9.11 49.41 9.11 49.41 4.96"/><path d="M28.79,52.89,13,37.11v28.3H0V7L28.79,35.89"/><polyline class="cls-1" points="28.79 35.89 57.59 7.01 57.59 65.41 44.57 65.41 44.57 37.11 28.79 52.89"/></g></g></svg>